<?xml version="1.0" encoding="utf-8"?>
<!-- Generator: Adobe Illustrator 23.0.3, SVG Export Plug-In . SVG Version: 6.00 Build 0)  -->
<svg version="1.1" id="Layer_1" xmlns="http://www.w3.org/2000/svg" xmlns:xlink="http://www.w3.org/1999/xlink" x="0px" y="0px"
	 viewBox="0 0 702.9 243.6" style="enable-background:new 0 0 702.9 243.6;" xml:space="preserve">
<style type="text/css">
	.st0{fill:#E63594;}
	.st1{fill:#FFFFFF;}
	.st2{fill:#373638;}
</style>
<g>
	<g>
		<g>
			<g>
				<path class="st0" d="M63.7,185.5c-5.1,0-9.6-1.2-13.5-3.6c-2-1.2-4-2.6-5.9-4.3c-2.3-1.9-5.7-0.3-5.7,2.7l0,0
					c0,1.9-1.6,3.5-3.5,3.5H16.9c-1.9,0-3.5-1.6-3.5-3.5V11.4C13.4,9.5,15,8,16.9,8h18.2c1.9,0,3.5,1.6,3.5,3.5v59.2
					c2.4-2.5,4.1-4.3,5.3-5.4c1.2-1.1,2.9-2.5,5.2-4.2c2.3-1.7,4.6-2.9,7-3.6c2.4-0.7,5.1-1,8-1c4.3,0,8,0.8,11.4,2.3
					s6.1,3.4,8.2,5.5s4,5.3,5.5,9.3c1.5,4.1,2.6,7.7,3.4,11c0.8,3.3,1.3,7.7,1.7,13.2c0.4,5.6,0.6,10.1,0.7,13.5
					c0.1,3.4,0.1,8.2,0.1,14.2v1.7c0,5.5-0.3,10.8-0.8,15.9c-0.6,5.1-1.6,10.3-3,15.6c-1.5,5.3-3.3,9.9-5.6,13.7
					c-2.3,3.9-5.3,7-9,9.5S68.5,185.5,63.7,185.5z M54.5,164.8c5.7,0.4,11.1-3.2,12.9-8.7c0.3-0.8,0.5-1.6,0.7-2.5
					c0.8-3.6,1.4-7.2,1.7-10.8c0.3-3.6,0.4-7.8,0.4-12.6c0-3.5,0-8.2,0-14c0-5.8-0.1-10.2-0.1-13.2c0-2.9-0.1-5.5-0.2-7.7
					c-0.1-2.2-0.5-4.5-1-6.9c-0.5-2.4-1.2-4.4-2.1-6s-2.1-2.9-3.7-3.9c-1.6-1-3.5-1.5-5.7-1.5c-6.2,0-11.9,1.3-17,4
					c-1.1,0.6-1.8,1.8-1.8,3.1v74.5c0,1.4,0.9,2.8,2.3,3.3C45.5,163.5,50,164.5,54.5,164.8z"/>
			</g>
		</g>
		<g>
			<g>
				<path class="st0" d="M107.1,35.8V17.6c0-1.9,1.6-3.5,3.5-3.5h18.2c1.9,0,3.5,1.6,3.5,3.5v18.2c0,1.9-1.6,3.5-3.5,3.5h-18.2
					C108.7,39.3,107.1,37.7,107.1,35.8z M107.1,180.3V61.6c0-1.9,1.6-3.5,3.5-3.5h18.2c1.9,0,3.5,1.6,3.5,3.5v118.7
					c0,1.9-1.6,3.5-3.5,3.5h-18.2C108.7,183.7,107.1,182.2,107.1,180.3z"/>
			</g>
		</g>
		<g>
			<path class="st1" d="M293,185.5c-10.3,0-18.6-3.1-24.9-9.2c-5.6-5.5-9.6-12.4-12-20.8c-0.5-1.8,0.5-3.6,2.3-4.2l12.6-4.2
				c1.7-0.6,3.6,0.3,4.3,1.9c4.4,10.6,10.3,15.9,17.7,15.9c4,0,7.1-1.1,9.3-3.3c2.2-2.2,3.3-5.3,3.3-9.3c0-5.8-2.1-10.7-6.3-14.5
				L274.1,119c-2.8-1.9-5.2-3.7-7.1-5.3c-1.9-1.7-3.8-3.7-5.8-6.1c-2-2.4-3.5-5.1-4.5-8.1c-1-3-1.5-6.3-1.5-9.8
				c0-10.7,3.4-18.9,10.3-24.6c6.8-5.7,16-8.5,27.4-8.5c5.4,0,10.3,0.9,14.7,2.6c4.4,1.7,8.1,4.2,11,7.3c3,3.1,5.4,6.6,7.4,10.5
				c1.5,3,2.7,6.2,3.7,9.7c0.5,1.8-0.5,3.6-2.3,4.2l-12.6,4.2c-1.7,0.6-3.6-0.3-4.3-1.9c-0.5-1.3-1.1-2.4-1.6-3.4
				c-0.9-1.8-2.1-3.7-3.7-5.8c-1.5-2.1-3.4-3.7-5.4-4.9c-2.1-1.1-4.4-1.7-7-1.7c-4,0-7.1,1.1-9.3,3.3c-2.2,2.2-3.3,5.3-3.3,9.3
				c0,3.9,2.1,7.5,6.3,10.6l25.1,18.8c2.8,2.2,5.2,4.4,7.2,6.4c2,2.1,3.9,4.5,5.8,7.2c1.9,2.7,3.3,5.7,4.3,9.1
				c1,3.3,1.5,6.9,1.5,10.7c0,10.7-3.4,18.9-10.3,24.6C313.5,182.7,304.4,185.5,293,185.5z"/>
		</g>
		<g>
			<path class="st1" d="M393.6,218v-37.6c0-2.9-3.4-4.5-5.7-2.7c-1.9,1.6-3.9,3-5.9,4.2c-4,2.4-8.5,3.6-13.6,3.6
				c-4.8,0-9.1-1.2-12.9-3.7c-3.8-2.5-6.8-5.6-9-9.5s-4.1-8.4-5.6-13.7c-1.5-5.3-2.5-10.5-3-15.6c-0.6-5.1-0.8-10.4-0.8-15.9v-19.1
				c0-5.7,0.3-10.9,0.8-15.6c0.5-4.7,1.5-9.4,2.8-13.9c1.4-4.6,3.2-8.5,5.4-11.6c2.3-3.2,5.3-5.7,9-7.7c3.7-1.9,8-2.9,13-2.9
				c2.8,0,5.4,0.4,7.9,1.1c2.5,0.8,4.8,1.9,7.1,3.6c2.3,1.6,4,3.1,5.3,4.3c1.3,1.2,3,3,5.3,5.3v-9.1c0-1.9,1.6-3.5,3.5-3.5h18.2
				c1.9,0,3.5,1.6,3.5,3.5V218c0,1.9-1.6,3.5-3.5,3.5H397C395.1,221.4,393.6,219.9,393.6,218z M374.7,164.9c5.9,0,11.6-1.4,17-4.1
				c1.1-0.6,1.8-1.8,1.8-3.1V82.1c-0.3-0.1-0.9-0.5-2-1.2c-1-0.7-1.8-1.1-2.2-1.3c-0.4-0.2-1.1-0.6-2.1-1.1c-1-0.5-1.8-0.9-2.4-1.1
				c-0.6-0.2-1.4-0.5-2.4-0.8c-0.9-0.3-1.9-0.5-2.7-0.6c-0.9-0.1-1.8-0.2-2.8-0.2c-2.1,0-3.9,0.5-5.5,1.4s-2.9,2.1-4,3.4
				c-1,1.3-1.9,3.2-2.7,5.6c-0.8,2.4-1.3,4.6-1.6,6.4c-0.3,1.9-0.6,4.4-0.8,7.5c-0.2,3.1-0.3,5.5-0.3,7.2c0,1.7,0,4.1,0,7.2
				c0,0.1,0,0.2,0,0.3c0,1.1,0,2.9,0,5.4c0,2.5,0,4.9,0,7.2s0,4.5,0,6.5c0.1,4.4,0.3,8.2,0.6,11.5c0.4,3.3,1,6.5,1.9,9.7
				c0.9,3.2,2.2,5.6,3.9,7.4C370.1,164,372.2,164.9,374.7,164.9z"/>
		</g>
		<g>
			<path class="st1" d="M453.6,185.5c-5.5,0-9.9-1.9-13.2-5.8c-3.3-3.9-5-8.7-5-14.5V61.6c0-1.9,1.6-3.5,3.5-3.5H457
				c1.9,0,3.5,1.6,3.5,3.5v96c0,2.6,0.8,4.7,2.4,6.4c1.6,1.6,3.7,2.5,6.2,2.5c1.4,0,2.7-0.2,4-0.5c1.3-0.3,2.6-0.9,3.9-1.7
				c1.3-0.8,2.3-1.5,3-2c0.7-0.5,1.8-1.3,3.1-2.5c1.3-1.2,2.2-1.9,2.5-2.2v-96c0-1.9,1.6-3.5,3.5-3.5h18.2c1.9,0,3.5,1.6,3.5,3.5
				v118.7c0,1.9-1.6,3.5-3.5,3.5H489c-1.9,0-3.5-1.6-3.5-3.5v-10.1c-2.5,2.2-4.3,3.7-5.4,4.7c-1.1,1-2.9,2.3-5.3,4
				c-2.4,1.7-4.4,2.9-6.2,3.6c-1.8,0.8-4,1.4-6.7,2.1C459.2,185.2,456.4,185.5,453.6,185.5z"/>
		</g>
		<g>
			<path class="st1" d="M530.3,35.8V17.6c0-1.9,1.6-3.5,3.5-3.5H552c1.9,0,3.5,1.6,3.5,3.5v18.2c0,1.9-1.6,3.5-3.5,3.5h-18.2
				C531.9,39.3,530.3,37.7,530.3,35.8z M530.3,180.3V61.6c0-1.9,1.6-3.5,3.5-3.5H552c1.9,0,3.5,1.6,3.5,3.5v118.7
				c0,1.9-1.6,3.5-3.5,3.5h-18.2C531.9,183.7,530.3,182.2,530.3,180.3z"/>
		</g>
		<g>
			<path class="st1" d="M602.4,185.5c-5.6,0-10.4-1.6-14.6-4.7c-4.2-3.1-7.4-7.4-9.6-12.8c-2.3-5.4-3.9-10.9-5.1-16.7
				c-1.1-5.8-1.8-12-2.1-18.7c-0.1-3.1-0.1-10.6,0-22.6c0.1-4.3,0.3-8.2,0.6-11.7c0.3-3.5,0.7-7.1,1.3-10.9
				c0.6-3.8,1.4-7.1,2.4-10.1c0.9-2.9,2.2-5.7,3.8-8.4c1.6-2.7,3.4-5,5.5-6.7c2.1-1.8,4.6-3.2,7.6-4.2c2.9-1,6.2-1.6,9.8-1.6
				c2.8,0,5.4,0.4,7.9,1.1c2.5,0.8,4.8,1.9,7,3.5c2.2,1.6,4,3,5.3,4.3c1.3,1.2,3.1,3,5.3,5.3V11.4c0-1.9,1.6-3.5,3.5-3.5h18.2
				c1.9,0,3.5,1.6,3.5,3.5v168.9c0,1.9-1.6,3.5-3.5,3.5H631c-1.9,0-3.5-1.6-3.5-3.5v0c0-2.9-3.4-4.5-5.7-2.7c-2,1.6-3.9,3-5.9,4.3
				C612,184.3,607.5,185.5,602.4,185.5z M608.7,164.9c5.4,0,10.9-1,16.6-3.1c1.4-0.5,2.3-1.8,2.3-3.3V84c0-1.3-0.7-2.5-1.8-3.1
				c-5.2-2.7-10.8-4-17-4c-2.5,0-4.6,0.6-6.3,1.8c-1.7,1.2-3,3-3.8,5.3c-0.9,2.3-1.5,4.7-1.9,7.2c-0.4,2.5-0.6,5.4-0.7,8.7
				c-0.3,14.7-0.3,26.3,0,34.8c0.1,4.2,0.3,7.9,0.7,11.2c0.4,3.3,1,6.4,1.9,9.5c0.9,3,2.2,5.4,3.9,7
				C604.2,164.1,606.3,164.9,608.7,164.9z"/>
		</g>
	</g>
	<g>
		<g>
			<path class="st2" d="M193.5,83.9c-10.2-3-20.8,2.4-22.2,13.6c0,0,0,0,0,0s0,0.1,0,0.3c0,0.3-0.1,0.8-0.1,1.5c0,0.4,0,0.8,0,1.3
				c0,0.1,0,0.1,0,0.2c-0.1,3.8,0.2,10.1,2.2,14.9c0,0,0,0,0,0c0.1,0.3,0.2,0.6,0.4,0.8l0.1,0c2.3,4.7,6.2,7.4,11.8,7.9
				c9.5,0.9,17.2-4.5,19.1-13.3C207.5,98.2,202.9,86.6,193.5,83.9z M184.2,106c-3.2,0-5.7-4.2-5.7-9.3c0-5.1,2.6-9.3,5.7-9.3
				c3.2,0,5.7,4.2,5.7,9.3C190,101.9,187.4,106,184.2,106z"/>
		</g>
		<path class="st1" d="M184.2,87.5c-3.2,0-5.7,4.2-5.7,9.3c0,5.1,2.6,9.3,5.7,9.3c3.2,0,5.7-4.2,5.7-9.3
			C190,91.6,187.4,87.5,184.2,87.5z"/>
		<path class="st1" d="M211.7,104.2c0.2-7.2-1.8-13.2-3.4-16.7c-0.3-0.7-0.6-1.3-0.8-1.7c-0.6-1.1-0.9-1.7-0.9-1.7
			c-3.4-5-9.1-7.9-15.9-8.6c-16.2-1.6-25.8,8.9-25.8,28.3l0,0c0,15.7,5.2,25,16.3,27.6c9.1,2.3,17.7,0.9,24-6.8
			C210.4,118.3,212,111.3,211.7,104.2C211.7,104.2,211.7,104.2,211.7,104.2z M204.7,111c-1.9,8.8-9.5,14.2-19.1,13.3
			c-5.6-0.5-9.5-3.2-11.8-7.9l-0.1,0c-0.1-0.3-0.3-0.6-0.4-0.8c0,0,0,0,0,0c-2.1-4.7-2.3-11.1-2.2-14.9c0-0.1,0-0.1,0-0.2
			c0-0.5,0-0.9,0-1.3c0-0.7,0.1-1.2,0.1-1.5c0-0.2,0-0.3,0-0.3s0,0,0,0c1.5-11.2,12-16.6,22.2-13.6C202.9,86.6,207.5,98.2,204.7,111
			z"/>
		<g>
			<path class="st0" d="M248.8,74C248.8,74,248.8,74,248.8,74c0-2.2-0.5-5.1-1.8-9c0,0,0,0,0,0c-0.1-0.2-0.1-0.4-0.2-0.5
				c-0.1-0.2-0.1-0.3-0.2-0.5l0-0.1c-1.4-3.5-3.3-4.1-3.3-4.1l-0.1,0c-1.1-0.4-3.1,0.1-4.6,0.4c-5.3,1.1-10.1,4.1-13.3,8.5
				c-1.7,2.2-3,3.4-5.8,1c-12.9-11.2-28.1-11.5-43.7-8.9c-13.1,2.2-21.3,7.6-25.7,16.9h0c0,0-7.6,14.6-3.5,41.1
				c0.3,2.8,0.8,5.6,1.5,8.2c0,0.1,0,0.1,0,0.2c0,0,0,0,0,0c2.2,7.5,6.7,13.9,15.3,18.3c-20.4,15.4-21.5,21.6-6,35.1
				c-7,3.2-13.1,6.6-15.4,13.7c-3,9.7,2.9,17.3,16.3,20.8c15.1,3.9,30.5,3.8,45.9,2.4c9.7-0.9,19.3-2.2,28.3-6.9
				c9-4.7,14-12.1,13.4-22.5c-0.6-10.4-5.9-17.4-15.5-21c-3.7-1.2-7.5-2.2-11.3-2.9c-11.8-2.6-23.9-0.7-35.8-2.6
				c-4.3-0.7-10.8,0.2-10.5-6.3c0.4-6.1,6.5-4.3,10.7-4.6c5.8-0.5,11.7-0.6,17.5-1.5c13.9-2.2,23.1-10.2,26.9-23.8
				c3.2-11.4,4.4-23.3,1.2-34.8c-2.1-7.7,1.6-9,7.2-10c1.9-0.3,3.9-0.4,5.9-0.2c0.5,0,0.9,0,1.3,0c0,0,0,0,0,0s0,0,0.1,0
				c0.6,0.1,4.2,0.3,4.6-0.8C249,78.4,248.8,74.4,248.8,74z M205.2,124.7c-6.3,7.6-14.9,9-24,6.8c-11.1-2.7-16.3-11.9-16.3-27.6l0,0
				c0-19.4,9.6-29.9,25.8-28.3c6.9,0.7,12.5,3.6,15.9,8.6c0,0,0.4,0.6,0.9,1.7c0.3,0.5,0.5,1.1,0.8,1.7c1.6,3.5,3.6,9.4,3.4,16.7
				c0,0,0,0,0,0C212,111.3,210.4,118.3,205.2,124.7z"/>
		</g>
	</g>
</g>
<g>
	<g>
		<path class="st1" d="M664.8,10.8h-4.4V9.2h10.7v1.6h-4.4v12.9h-1.9V10.8z"/>
	</g>
	<g>
		<path class="st1" d="M685,17.3c-0.1-2-0.2-4.5-0.2-6.3h-0.1c-0.5,1.7-1.1,3.5-1.8,5.5l-2.6,7h-1.4l-2.3-6.9
			c-0.7-2-1.3-3.9-1.7-5.6h0c0,1.8-0.2,4.2-0.3,6.4l-0.4,6.2h-1.8l1-14.5h2.4l2.5,7c0.6,1.8,1.1,3.4,1.5,4.9h0.1
			c0.4-1.5,0.9-3.1,1.5-4.9l2.6-7h2.4l0.9,14.5h-1.8L685,17.3z"/>
	</g>
</g>
<g>
	<path class="st1" d="M445.6,205.9h4.8l9.5,24.6H455l-1.9-5.1h-10l-2,5.1h-4.9L445.6,205.9z M448,212.4l-3.3,8.4h6.6L448,212.4z"/>
	<path class="st1" d="M463.8,205.9h4.7v24.6h-4.7V205.9z"/>
	<path class="st1" d="M497.6,209.2l-3.5,3.1c-1.2-1.7-2.5-2.5-3.7-2.5c-0.6,0-1.1,0.2-1.5,0.5c-0.4,0.3-0.6,0.7-0.6,1.1
		s0.1,0.8,0.4,1.2c0.4,0.5,1.5,1.5,3.4,3.2c1.8,1.5,2.9,2.4,3.3,2.8c0.9,1,1.6,1.9,2,2.8c0.4,0.9,0.6,1.8,0.6,2.9c0,2-0.7,3.7-2.1,5
		c-1.4,1.3-3.2,2-5.5,2c-1.8,0-3.3-0.4-4.6-1.3c-1.3-0.9-2.4-2.2-3.3-4l3.9-2.4c1.2,2.2,2.5,3.3,4.1,3.3c0.8,0,1.5-0.2,2-0.7
		c0.5-0.5,0.8-1,0.8-1.6c0-0.6-0.2-1.1-0.6-1.7s-1.3-1.4-2.7-2.6c-2.7-2.2-4.4-3.9-5.2-5.1c-0.8-1.2-1.2-2.4-1.2-3.6
		c0-1.7,0.7-3.2,2-4.4s2.9-1.8,4.8-1.8c1.2,0,2.4,0.3,3.5,0.9C495.1,206.7,496.3,207.7,497.6,209.2z"/>
	<path class="st1" d="M502.9,205.9h4.7v24.6h-4.7V205.9z"/>
	<path class="st1" d="M515.8,205.9h4.6l5.7,17.2l5.8-17.2h4.6l4.1,24.6H536l-2.6-15.5l-5.2,15.5H524l-5.2-15.5l-2.7,15.5h-4.6
		L515.8,205.9z"/>
	<path class="st1" d="M545,205.9h5c2.7,0,4.6,0.2,5.8,0.7c1.2,0.5,2.1,1.3,2.8,2.4c0.7,1.1,1,2.4,1,4c0,1.7-0.4,3.1-1.3,4.3
		c-0.9,1.1-2.1,1.9-3.7,2.4c-0.9,0.3-2.5,0.4-4.9,0.4v10.4H545V205.9z M549.6,215.5h1.5c1.2,0,2-0.1,2.4-0.3
		c0.5-0.2,0.8-0.4,1.1-0.8c0.3-0.4,0.4-0.9,0.4-1.4c0-1-0.4-1.6-1.1-2.1c-0.5-0.3-1.5-0.5-3-0.5h-1.3V215.5z"/>
	<path class="st1" d="M564.9,205.9h4.7V226h6.8v4.5h-11.5V205.9z"/>
	<path class="st1" d="M580.3,205.9h4.7v24.6h-4.7V205.9z"/>
	<path class="st1" d="M590.9,205.9h12.2v4.6h-7.6v4.5h7.6v4.5h-7.6v11.1h-4.7V205.9z"/>
	<path class="st1" d="M607.7,205.9h4.7v24.6h-4.7V205.9z"/>
	<path class="st1" d="M618.3,205.9h13.4v4.6h-8.8v4.4h8.8v4.5h-8.8v6.5h8.8v4.6h-13.4V205.9z"/>
	<path class="st1" d="M636.8,205.9h5.5c3.6,0,6.2,0.4,8,1.3s3.2,2.3,4.3,4.3c1.1,2,1.7,4.3,1.7,7c0,1.9-0.3,3.6-0.9,5.2
		c-0.6,1.6-1.5,2.9-2.6,4c-1.1,1-2.3,1.8-3.6,2.2c-1.3,0.4-3.5,0.6-6.7,0.6h-5.6V205.9z M641.4,210.4v15.5h2.2
		c2.1,0,3.7-0.2,4.7-0.7s1.8-1.3,2.4-2.5s0.9-2.6,0.9-4.3c0-2.6-0.7-4.6-2.2-6.1c-1.3-1.3-3.4-1.9-6.3-1.9H641.4z"/>
</g>
</svg>
