<?xml version="1.0" encoding="utf-8"?>
<!-- Generator: Adobe Illustrator 23.0.3, SVG Export Plug-In . SVG Version: 6.00 Build 0)  -->
<svg version="1.1" id="Layer_1" xmlns="http://www.w3.org/2000/svg" xmlns:xlink="http://www.w3.org/1999/xlink" x="0px" y="0px"
	 viewBox="0 0 687.3 234.7" style="enable-background:new 0 0 687.3 234.7;" xml:space="preserve">
<style type="text/css">
	.st0{fill:#E63594;}
	.st1{fill:#373638;}
	.st2{fill:#FFFFFF;}
	.st3{fill:#939598;}
</style>
<g>
	<g>
		<g>
			<path class="st0" d="M60,185.2c-5.1,0-9.6-1.2-13.5-3.6c-2-1.2-4-2.6-5.9-4.3c-2.3-1.9-5.7-0.3-5.7,2.7v0c0,1.9-1.6,3.5-3.5,3.5
				H13.3c-1.9,0-3.5-1.6-3.5-3.5V11.2c0-1.9,1.6-3.5,3.5-3.5h18.2c1.9,0,3.5,1.6,3.5,3.5v59.2c2.4-2.5,4.1-4.3,5.3-5.4
				c1.2-1.1,2.9-2.5,5.2-4.2c2.3-1.7,4.6-2.9,7-3.6c2.4-0.7,5.1-1,8-1c4.3,0,8,0.8,11.4,2.3c3.3,1.5,6.1,3.4,8.2,5.5s4,5.3,5.5,9.3
				c1.5,4.1,2.6,7.7,3.4,11c0.8,3.3,1.3,7.7,1.7,13.2c0.4,5.6,0.6,10.1,0.7,13.5c0.1,3.4,0.1,8.2,0.1,14.2v1.7
				c0,5.5-0.3,10.8-0.8,15.9c-0.6,5.1-1.6,10.3-3,15.6c-1.5,5.3-3.3,9.9-5.6,13.7c-2.3,3.9-5.3,7-9,9.5
				C69.2,184,64.9,185.2,60,185.2z M50.8,164.5c5.7,0.4,11.1-3.2,12.9-8.7c0.3-0.8,0.5-1.6,0.7-2.5c0.8-3.6,1.4-7.2,1.7-10.8
				c0.3-3.6,0.4-7.8,0.4-12.6c0-3.5,0-8.2,0-14c0-5.8-0.1-10.2-0.1-13.2c0-2.9-0.1-5.5-0.2-7.7c-0.1-2.2-0.5-4.5-1-6.9
				s-1.2-4.4-2.1-6s-2.1-2.9-3.7-3.9c-1.6-1-3.5-1.5-5.7-1.5c-6.2,0-11.9,1.3-17,4c-1.1,0.6-1.8,1.8-1.8,3.1v74.5
				c0,1.4,0.9,2.8,2.3,3.3C41.8,163.2,46.4,164.2,50.8,164.5z"/>
		</g>
	</g>
	<g>
		<g>
			<path class="st0" d="M103.5,35.5V17.3c0-1.9,1.6-3.5,3.5-3.5h18.2c1.9,0,3.5,1.6,3.5,3.5v18.2c0,1.9-1.6,3.5-3.5,3.5h-18.2
				C105,39,103.5,37.4,103.5,35.5z M103.5,180V61.3c0-1.9,1.6-3.5,3.5-3.5h18.2c1.9,0,3.5,1.6,3.5,3.5V180c0,1.9-1.6,3.5-3.5,3.5
				h-18.2C105,183.5,103.5,181.9,103.5,180z"/>
		</g>
	</g>
	<g>
		<path class="st1" d="M289.3,185.2c-10.3,0-18.6-3.1-24.9-9.2c-5.6-5.5-9.6-12.4-12-20.8c-0.5-1.8,0.5-3.6,2.3-4.2l12.6-4.2
			c1.7-0.6,3.6,0.3,4.3,1.9c4.4,10.6,10.3,15.9,17.7,15.9c4,0,7.1-1.1,9.3-3.3c2.2-2.2,3.3-5.3,3.3-9.3c0-5.8-2.1-10.7-6.3-14.5
			l-25.1-18.8c-2.8-1.9-5.2-3.7-7.1-5.3c-1.9-1.7-3.8-3.7-5.8-6.1c-2-2.4-3.5-5.1-4.5-8.1s-1.5-6.3-1.5-9.8
			c0-10.7,3.4-18.9,10.3-24.6c6.8-5.7,16-8.5,27.4-8.5c5.4,0,10.3,0.9,14.7,2.6c4.4,1.7,8.1,4.2,11,7.3c3,3.1,5.4,6.6,7.4,10.5
			c1.5,3,2.7,6.2,3.7,9.7c0.5,1.8-0.5,3.6-2.3,4.2l-12.6,4.2c-1.7,0.6-3.6-0.3-4.3-1.9c-0.5-1.3-1.1-2.4-1.6-3.4
			c-0.9-1.8-2.1-3.7-3.7-5.8c-1.5-2.1-3.4-3.7-5.4-4.9c-2.1-1.1-4.4-1.7-7-1.7c-4,0-7.1,1.1-9.3,3.3c-2.2,2.2-3.3,5.3-3.3,9.3
			c0,3.9,2.1,7.5,6.3,10.6l25.1,18.8c2.8,2.2,5.2,4.4,7.2,6.4s3.9,4.5,5.8,7.2c1.9,2.7,3.3,5.7,4.3,9.1c1,3.3,1.5,6.9,1.5,10.7
			c0,10.7-3.4,18.9-10.3,24.6C309.9,182.4,300.8,185.2,289.3,185.2z"/>
	</g>
	<g>
		<path class="st1" d="M389.9,217.7v-37.6c0-2.9-3.4-4.5-5.7-2.7c-1.9,1.6-3.9,3-5.9,4.2c-4,2.4-8.5,3.6-13.6,3.6
			c-4.8,0-9.1-1.2-12.9-3.7s-6.8-5.6-9-9.5s-4.1-8.4-5.6-13.7c-1.5-5.3-2.5-10.5-3-15.6c-0.6-5.1-0.8-10.4-0.8-15.9v-19.1
			c0-5.7,0.3-10.9,0.8-15.6c0.5-4.7,1.5-9.4,2.8-13.9c1.4-4.6,3.2-8.5,5.4-11.6c2.3-3.2,5.3-5.7,9-7.7c3.7-1.9,8-2.9,13-2.9
			c2.8,0,5.4,0.4,7.9,1.1c2.5,0.8,4.8,1.9,7.1,3.6c2.3,1.6,4,3.1,5.3,4.3c1.3,1.2,3,3,5.3,5.3v-9.1c0-1.9,1.6-3.5,3.5-3.5h18.2
			c1.9,0,3.5,1.6,3.5,3.5v156.4c0,1.9-1.6,3.5-3.5,3.5h-18.2C391.5,221.1,389.9,219.6,389.9,217.7z M371.1,164.6
			c5.9,0,11.6-1.4,17-4.1c1.1-0.6,1.8-1.8,1.8-3.1V81.8c-0.3-0.1-0.9-0.5-2-1.2c-1-0.7-1.8-1.1-2.2-1.3c-0.4-0.2-1.1-0.6-2.1-1.1
			c-1-0.5-1.8-0.9-2.4-1.1c-0.6-0.2-1.4-0.5-2.4-0.8c-0.9-0.3-1.9-0.5-2.7-0.6c-0.9-0.1-1.8-0.2-2.8-0.2c-2.1,0-3.9,0.5-5.5,1.4
			c-1.6,0.9-2.9,2.1-4,3.4c-1,1.3-1.9,3.2-2.7,5.6c-0.8,2.4-1.3,4.6-1.6,6.4c-0.3,1.9-0.6,4.4-0.8,7.5c-0.2,3.1-0.3,5.5-0.3,7.2
			c0,1.7,0,4.1,0,7.2c0,0.1,0,0.2,0,0.3c0,1.1,0,2.9,0,5.4c0,2.5,0,4.9,0,7.2s0,4.5,0,6.5c0.1,4.4,0.3,8.2,0.6,11.5
			c0.4,3.3,1,6.5,1.9,9.7c0.9,3.2,2.2,5.6,3.9,7.4C366.5,163.7,368.6,164.6,371.1,164.6z"/>
	</g>
	<g>
		<path class="st1" d="M449.9,185.2c-5.5,0-9.9-1.9-13.2-5.8c-3.3-3.9-5-8.7-5-14.5V61.3c0-1.9,1.6-3.5,3.5-3.5h18.2
			c1.9,0,3.5,1.6,3.5,3.5v96c0,2.6,0.8,4.7,2.4,6.4s3.7,2.5,6.2,2.5c1.4,0,2.7-0.2,4-0.5c1.3-0.3,2.6-0.9,3.9-1.7
			c1.3-0.8,2.3-1.5,3-2c0.7-0.5,1.8-1.3,3.1-2.5c1.3-1.2,2.2-1.9,2.5-2.2v-96c0-1.9,1.6-3.5,3.5-3.5h18.2c1.9,0,3.5,1.6,3.5,3.5V180
			c0,1.9-1.6,3.5-3.5,3.5h-18.2c-1.9,0-3.5-1.6-3.5-3.5v-10.1c-2.5,2.2-4.3,3.7-5.4,4.7c-1.1,1-2.9,2.3-5.3,4
			c-2.4,1.7-4.4,2.9-6.2,3.6c-1.8,0.8-4,1.4-6.7,2.1C455.6,184.9,452.8,185.2,449.9,185.2z"/>
	</g>
	<g>
		<path class="st1" d="M526.7,35.5V17.3c0-1.9,1.6-3.5,3.5-3.5h18.2c1.9,0,3.5,1.6,3.5,3.5v18.2c0,1.9-1.6,3.5-3.5,3.5h-18.2
			C528.2,39,526.7,37.4,526.7,35.5z M526.7,180V61.3c0-1.9,1.6-3.5,3.5-3.5h18.2c1.9,0,3.5,1.6,3.5,3.5V180c0,1.9-1.6,3.5-3.5,3.5
			h-18.2C528.2,183.5,526.7,181.9,526.7,180z"/>
	</g>
	<g>
		<path class="st1" d="M598.7,185.2c-5.6,0-10.4-1.6-14.6-4.7c-4.2-3.1-7.4-7.4-9.6-12.8c-2.3-5.4-3.9-10.9-5.1-16.7
			c-1.1-5.8-1.8-12-2.1-18.7c-0.1-3.1-0.1-10.6,0-22.6c0.1-4.3,0.3-8.2,0.6-11.7c0.3-3.5,0.7-7.1,1.3-10.9c0.6-3.8,1.4-7.1,2.4-10.1
			c0.9-2.9,2.2-5.7,3.8-8.4c1.6-2.7,3.4-5,5.5-6.7c2.1-1.8,4.6-3.2,7.6-4.2c2.9-1,6.2-1.6,9.8-1.6c2.8,0,5.4,0.4,7.9,1.1
			c2.5,0.8,4.8,1.9,7,3.5c2.2,1.6,4,3,5.3,4.3c1.3,1.2,3.1,3,5.3,5.3V11.1c0-1.9,1.6-3.5,3.5-3.5h18.2c1.9,0,3.5,1.6,3.5,3.5V180
			c0,1.9-1.6,3.5-3.5,3.5h-18.2c-1.9,0-3.5-1.6-3.5-3.5v0c0-2.9-3.4-4.5-5.7-2.7c-2,1.6-3.9,3-5.9,4.3
			C608.4,184,603.8,185.2,598.7,185.2z M605,164.6c5.4,0,10.9-1,16.6-3.1c1.4-0.5,2.3-1.8,2.3-3.3V83.7c0-1.3-0.7-2.5-1.8-3.1
			c-5.2-2.7-10.8-4-17-4c-2.5,0-4.6,0.6-6.3,1.8c-1.7,1.2-3,3-3.8,5.3c-0.9,2.3-1.5,4.7-1.9,7.2c-0.4,2.5-0.6,5.4-0.7,8.7
			c-0.3,14.7-0.3,26.3,0,34.8c0.1,4.2,0.3,7.9,0.7,11.2c0.4,3.3,1,6.4,1.9,9.5c0.9,3,2.2,5.4,3.9,7S602.6,164.6,605,164.6z"/>
	</g>
</g>
<g>
	<g>
		<path class="st1" d="M189.8,83.6c-10.2-3-20.8,2.4-22.2,13.6c0,0,0,0,0,0s0,0.1,0,0.3c0,0.3-0.1,0.8-0.1,1.5c0,0.4,0,0.8,0,1.3
			c0,0.1,0,0.1,0,0.2c-0.1,3.8,0.2,10.1,2.2,14.9c0,0,0,0,0,0c0.1,0.3,0.2,0.6,0.4,0.8l0.1,0c2.3,4.7,6.2,7.4,11.8,7.9
			c9.5,0.9,17.2-4.5,19.1-13.3C203.8,97.9,199.2,86.3,189.8,83.6z M180.6,105.8c-3.2,0-5.7-4.2-5.7-9.3c0-5.1,2.6-9.3,5.7-9.3
			c3.2,0,5.7,4.2,5.7,9.3C186.3,101.6,183.7,105.8,180.6,105.8z"/>
	</g>
	<path class="st2" d="M180.6,87.2c-3.2,0-5.7,4.2-5.7,9.3c0,5.1,2.6,9.3,5.7,9.3c3.2,0,5.7-4.2,5.7-9.3
		C186.3,91.3,183.7,87.2,180.6,87.2z"/>
	<path class="st2" d="M208.1,103.9c0.2-7.2-1.8-13.2-3.4-16.7c-0.3-0.7-0.6-1.3-0.8-1.7c-0.6-1.1-0.9-1.7-0.9-1.7
		c-3.4-5-9.1-7.9-15.9-8.6c-16.2-1.6-25.8,8.9-25.8,28.3l0,0c0,15.7,5.2,25,16.3,27.6c9.1,2.3,17.7,0.9,24-6.8
		C206.7,118,208.3,111,208.1,103.9C208.1,103.9,208.1,103.9,208.1,103.9z M201,110.8c-1.9,8.8-9.5,14.2-19.1,13.3
		c-5.6-0.5-9.5-3.2-11.8-7.9l-0.1,0c-0.1-0.3-0.3-0.6-0.4-0.8c0,0,0,0,0,0c-2.1-4.7-2.3-11.1-2.2-14.9c0-0.1,0-0.1,0-0.2
		c0-0.5,0-0.9,0-1.3c0-0.7,0.1-1.2,0.1-1.5c0-0.2,0-0.3,0-0.3s0,0,0,0c1.5-11.2,12-16.6,22.2-13.6C199.2,86.3,203.8,97.9,201,110.8z
		"/>
	<g>
		<path class="st0" d="M245.1,73.7C245.1,73.7,245.1,73.7,245.1,73.7c0-2.2-0.5-5.1-1.8-9c0,0,0,0,0,0c-0.1-0.2-0.1-0.4-0.2-0.5
			c-0.1-0.2-0.1-0.3-0.2-0.5l0-0.1c-1.4-3.5-3.3-4.1-3.3-4.1l-0.1,0c-1.1-0.4-3.1,0.1-4.6,0.4c-5.3,1.1-10.1,4.1-13.3,8.5
			c-1.7,2.2-3,3.4-5.8,1c-12.9-11.2-28.1-11.5-43.7-8.9c-13.1,2.2-21.3,7.6-25.7,16.9h0c0,0-7.6,14.6-3.5,41.1
			c0.3,2.8,0.8,5.6,1.5,8.2c0,0.1,0,0.1,0,0.2c0,0,0,0,0,0c2.2,7.5,6.7,13.9,15.3,18.3c-20.4,15.4-21.5,21.6-6,35.1
			c-7,3.2-13.1,6.6-15.4,13.7c-3,9.7,2.9,17.3,16.3,20.8c15.1,3.9,30.5,3.8,45.9,2.4c9.7-0.9,19.3-2.2,28.3-6.9
			c9-4.7,14-12.1,13.4-22.5c-0.6-10.4-5.9-17.4-15.5-21c-3.7-1.2-7.5-2.2-11.3-2.9c-11.8-2.6-23.9-0.7-35.8-2.6
			c-4.3-0.7-10.8,0.2-10.5-6.3c0.4-6.1,6.5-4.3,10.7-4.6c5.8-0.5,11.7-0.6,17.5-1.5c13.9-2.2,23.1-10.2,26.9-23.8
			c3.2-11.4,4.4-23.3,1.2-34.8c-2.1-7.7,1.6-9,7.2-10c1.9-0.3,3.9-0.4,5.9-0.2c0.5,0,0.9,0,1.3,0c0,0,0,0,0,0s0,0,0.1,0
			c0.6,0.1,4.2,0.3,4.6-0.8C245.3,78.1,245.1,74.1,245.1,73.7z M201.5,124.4c-6.3,7.6-14.9,9-24,6.8c-11.1-2.7-16.3-11.9-16.3-27.6
			l0,0c0-19.4,9.6-29.9,25.8-28.3c6.9,0.7,12.5,3.6,15.9,8.6c0,0,0.4,0.6,0.9,1.7c0.3,0.5,0.5,1.1,0.8,1.7c1.6,3.5,3.6,9.4,3.4,16.7
			c0,0,0,0,0,0C208.3,111,206.7,118,201.5,124.4z"/>
	</g>
</g>
<g>
	<g>
		<path class="st1" d="M659.1,10.2h-4.4V8.6h10.7v1.6H661v12.9h-1.9V10.2z"/>
	</g>
	<g>
		<path class="st1" d="M679.3,16.7c-0.1-2-0.2-4.5-0.2-6.3H679c-0.5,1.7-1.1,3.5-1.8,5.5l-2.6,7h-1.4l-2.3-6.9
			c-0.7-2-1.3-3.9-1.7-5.6h0c0,1.8-0.2,4.2-0.3,6.4l-0.4,6.2h-1.8l1-14.5h2.4l2.5,7c0.6,1.8,1.1,3.4,1.5,4.9h0.1
			c0.4-1.5,0.9-3.1,1.5-4.9l2.6-7h2.4l0.9,14.5h-1.8L679.3,16.7z"/>
	</g>
</g>
<g>
	<path class="st3" d="M438.4,198.5h4.8l9.5,24.6h-4.9l-1.9-5.1h-10l-2,5.1h-4.9L438.4,198.5z M440.8,205.1l-3.3,8.4h6.6L440.8,205.1
		z"/>
	<path class="st3" d="M456.6,198.5h4.7v24.6h-4.7V198.5z"/>
	<path class="st3" d="M490.3,201.9l-3.5,3.1c-1.2-1.7-2.5-2.5-3.7-2.5c-0.6,0-1.1,0.2-1.5,0.5c-0.4,0.3-0.6,0.7-0.6,1.1
		s0.1,0.8,0.4,1.2c0.4,0.5,1.5,1.5,3.4,3.2c1.8,1.5,2.9,2.4,3.3,2.8c0.9,1,1.6,1.9,2,2.8c0.4,0.9,0.6,1.8,0.6,2.9c0,2-0.7,3.7-2.1,5
		s-3.2,2-5.5,2c-1.8,0-3.3-0.4-4.6-1.3c-1.3-0.9-2.4-2.2-3.3-4l3.9-2.4c1.2,2.2,2.5,3.3,4.1,3.3c0.8,0,1.5-0.2,2-0.7
		c0.5-0.5,0.8-1,0.8-1.6c0-0.6-0.2-1.1-0.6-1.7s-1.3-1.4-2.7-2.6c-2.7-2.2-4.4-3.9-5.2-5.1c-0.8-1.2-1.2-2.4-1.2-3.6
		c0-1.7,0.7-3.2,2-4.4s2.9-1.8,4.8-1.8c1.2,0,2.4,0.3,3.5,0.9C487.8,199.3,489.1,200.4,490.3,201.9z"/>
	<path class="st3" d="M495.6,198.5h4.7v24.6h-4.7V198.5z"/>
	<path class="st3" d="M508.6,198.5h4.6l5.7,17.2l5.8-17.2h4.6l4.1,24.6h-4.5l-2.6-15.5l-5.2,15.5h-4.1l-5.2-15.5l-2.7,15.5h-4.6
		L508.6,198.5z"/>
	<path class="st3" d="M537.7,198.5h5c2.7,0,4.6,0.2,5.8,0.7c1.2,0.5,2.1,1.3,2.8,2.4c0.7,1.1,1,2.4,1,4c0,1.7-0.4,3.1-1.3,4.3
		c-0.9,1.1-2.1,1.9-3.7,2.4c-0.9,0.3-2.5,0.4-4.9,0.4v10.4h-4.7V198.5z M542.4,208.2h1.5c1.2,0,2-0.1,2.4-0.3
		c0.5-0.2,0.8-0.4,1.1-0.8c0.3-0.4,0.4-0.9,0.4-1.4c0-1-0.4-1.6-1.1-2.1c-0.5-0.3-1.5-0.5-3-0.5h-1.3V208.2z"/>
	<path class="st3" d="M557.6,198.5h4.7v20.1h6.8v4.5h-11.5V198.5z"/>
	<path class="st3" d="M573,198.5h4.7v24.6H573V198.5z"/>
	<path class="st3" d="M583.7,198.5h12.2v4.6h-7.6v4.5h7.6v4.5h-7.6v11.1h-4.7V198.5z"/>
	<path class="st3" d="M600.4,198.5h4.7v24.6h-4.7V198.5z"/>
	<path class="st3" d="M611,198.5h13.4v4.6h-8.8v4.4h8.8v4.5h-8.8v6.5h8.8v4.6H611V198.5z"/>
	<path class="st3" d="M629.5,198.5h5.5c3.6,0,6.2,0.4,8,1.3s3.2,2.3,4.3,4.3c1.1,2,1.7,4.3,1.7,7c0,1.9-0.3,3.6-0.9,5.2
		c-0.6,1.6-1.5,2.9-2.6,4c-1.1,1-2.3,1.8-3.6,2.2c-1.3,0.4-3.5,0.6-6.7,0.6h-5.6V198.5z M634.2,203.1v15.5h2.2
		c2.1,0,3.7-0.2,4.7-0.7s1.8-1.3,2.4-2.5s0.9-2.6,0.9-4.3c0-2.6-0.7-4.6-2.2-6.1c-1.3-1.3-3.4-1.9-6.3-1.9H634.2z"/>
</g>
</svg>
